<svg xmlns="http://www.w3.org/2000/svg" viewBox="0 0 31.012 31.012">
  <path d="M25.109 21.51c-.123 0-.246-.045-.342-.136l-5.754-5.398c-.201-.188-.211-.505-.022-.706.189-.203.504-.212.707-.022l5.754 5.398c.201.188.211.505.022.706-.099.105-.231.158-.365.158zm-19.207 0c-.133 0-.266-.053-.365-.158-.189-.201-.179-.518.022-.706l5.756-5.398c.202-.188.519-.18.707.022.189.201.179.518-.022.706l-5.756 5.398c-.096.091-.219.136-.342.136z"/>
  <path d="M28.512 26.529H2.5c-1.378 0-2.5-1.121-2.5-2.5V6.982c0-1.379 1.122-2.5 2.5-2.5h26.012c1.378 0 2.5 1.121 2.5 2.5v17.047c0 1.379-1.122 2.5-2.5 2.5zM2.5 5.482c-.827 0-1.5.673-1.5 1.5v17.047c0 .827.673 1.5 1.5 1.5h26.012c.827 0 1.5-.673 1.5-1.5V6.982c0-.827-.673-1.5-1.5-1.5H2.5z"/>
  <path d="M15.506 18.018c-.665 0-1.33-.221-1.836-.662L.83 6.155C.622 5.974.6 5.658.781 5.449c.183-.208.498-.227.706-.048l12.84 11.2c.639.557 1.719.557 2.357 0L29.508 5.419c.207-.181.522-.161.706.048.181.209.16.524-.048.706L17.342 17.355c-.507.442-1.171.663-1.836.663z"/>
</svg>